<svg xmlns="http://www.w3.org/2000/svg" viewBox="0 0 72 72" width="72" height="72">
	<style>
		tspan { white-space:pre }
		.shp0 { fill: #ffffff } 
		.shp1 { fill: #efefef } 
		.shp2 { fill: #d5d5d5 } 
		.shp3 { fill: #f4f4f4 } 
		.shp4 { fill: #dddddd } 
		.shp5 { fill: #f8f8f8 } 
		.shp6 { fill: #afafaf } 
		.shp7 { fill: #8e8e8e } 
		.shp8 { fill: #ececec } 
		.shp9 { fill: #eaeaea } 
		.shp10 { fill: #f7f7f7 } 
		.shp11 { fill: #c0c0c0 } 
		.shp12 { fill: #898989 } 
		.shp13 { fill: #ebebeb } 
		.shp14 { fill: #c4c4c4 } 
		.shp15 { fill: #d6d6d6 } 
		.shp16 { fill: #c5c5c5 } 
		.shp17 { fill: #d3d3d3 } 
		.shp18 { fill: #929292 } 
		.shp19 { fill: #c2c2c2 } 
		.shp20 { fill: #a4a4a4 } 
		.shp21 { fill: #e9e9e9 } 
		.shp22 { fill: #c8c8c8 } 
		.shp23 { fill: #e0e0e0 } 
		.shp24 { fill: #f0f0f0 } 
		.shp25 { fill: #e6e6e6 } 
		.shp26 { fill: #f5f5f5 } 
		.shp27 { fill: #fbfbfb } 
		.shp28 { fill: #e2e2e2 } 
		.shp29 { fill: #cccccc } 
		.shp30 { fill: #e1e1e1 } 
		.shp31 { fill: #dadada } 
		.shp32 { fill: #c1c1c1 } 
		.shp33 { fill: #fdfdfd } 
		.shp34 { fill: #dfdfdf } 
		.shp35 { fill: #b9b9b9 } 
		.shp36 { fill: #b7b7b7 } 
		.shp37 { fill: #b8b8b8 } 
		.shp38 { fill: #b6b6b6 } 
		.shp39 { fill: #f3f3f3 } 
		.shp40 { fill: #e8e8e8 } 
		.shp41 { fill: #b3b3b3 } 
		.shp42 { fill: #fafafa } 
		.shp43 { fill: #adadad } 
		.shp44 { fill: #dedede } 
		.shp45 { fill: #cacaca } 
		.shp46 { fill: #d7d7d7 } 
		.shp47 { fill: #d2d2d2 } 
		.shp48 { fill: #858585 } 
		.shp49 { fill: #d0d0d0 } 
		.shp50 { fill: #646464 } 
		.shp51 { fill: #cdcdcd } 
		.shp52 { fill: #acacac } 
		.shp53 { fill: #bcbcbc } 
		.shp54 { fill: #9f9f9f } 
		.shp55 { fill: #848484 } 
		.shp56 { fill: #919191 } 
	</style>
	<g id="Page 1">
		<path id="Path 1" class="shp0" d="M67.76,2.28l4.64,-2.67h-4.64zM72.4,4.95v-5.35l-4.64,2.67zM67.76,2.28v5.36l4.64,-2.68z" />
		<path id="Path 2" class="shp1" d="M72.4,10.31v-5.36l-4.64,2.68z" />
		<path id="Path 3" class="shp2" d="M67.76,7.64v5.35l4.64,-2.67z" />
		<path id="Path 4" class="shp0" d="M72.4,15.66v-5.35l-4.64,2.67z" />
		<path id="Path 5" class="shp3" d="M67.76,12.99v5.36l4.64,-2.68z" />
		<path id="Path 6" class="shp0" d="M72.4,21.02v-5.36l-4.64,2.68zM67.76,18.34v5.35l4.64,-2.68z" />
		<path id="Path 7" class="shp4" d="M72.4,26.37v-5.36l-4.64,2.68z" />
		<path id="Path 8" class="shp5" d="M67.76,23.69v5.36l4.64,-2.68z" />
		<path id="Path 9" class="shp0" d="M72.4,31.72v-5.35l-4.64,2.68zM67.76,29.05v5.35l4.64,-2.68zM72.4,37.08v-5.36l-4.64,2.68zM67.76,34.4v5.35l4.64,-2.67z" />
		<path id="Path 10" class="shp6" d="M72.4,42.43v-5.35l-4.64,2.68z" />
		<path id="Path 11" class="shp7" d="M67.76,45.11l4.64,-2.68l-4.64,-2.68z" />
		<path id="Path 12" class="shp0" d="M72.4,47.79v-5.36l-4.64,2.68z" />
		<path id="Path 13" class="shp8" d="M67.76,50.46l4.64,-2.68l-4.64,-2.67z" />
		<path id="Path 14" class="shp0" d="M72.4,53.14v-5.35l-4.64,2.68zM67.76,55.82l4.64,-2.68l-4.64,-2.68z" />
		<path id="Path 15" class="shp9" d="M72.4,58.49v-5.35l-4.64,2.68z" />
		<path id="Path 16" class="shp10" d="M67.76,61.17l4.64,-2.67l-4.64,-2.68z" />
		<path id="Path 17" class="shp11" d="M72.4,63.85v-5.36l-4.64,2.68z" />
		<path id="Path 18" class="shp0" d="M67.76,66.53l4.64,-2.68l-4.64,-2.68zM72.4,69.2v-5.35l-4.64,2.68zM67.76,71.88l4.64,-2.67l-4.64,-2.67z" />
		<path id="Path 19" class="shp12" d="M67.97,72h4.43v-2.8l-4.64,2.67z" />
		<path id="Path 20" class="shp13" d="M63.12,69.2v2.8h4.43l0.21,-0.12z" />
		<path id="Path 21" class="shp0" d="M67.76,71.88v-5.35l-4.64,2.67z" />
		<path id="Path 22" class="shp14" d="M63.12,69.2l4.64,-2.67l-4.64,-2.68z" />
		<path id="Path 23" class="shp0" d="M67.76,66.53v-5.36l-4.64,2.68z" />
		<path id="Path 24" class="shp9" d="M63.12,63.85l4.64,-2.68l-4.64,-2.68z" />
		<path id="Path 25" class="shp4" d="M67.76,61.17v-5.35l-4.64,2.68z" />
		<path id="Path 26" class="shp0" d="M63.12,58.49l4.64,-2.68l-4.64,-2.68zM67.76,55.82v-5.35l-4.64,2.68zM63.12,53.14l4.64,-2.68l-4.64,-2.68zM67.76,50.46v-5.35l-4.64,2.67zM63.12,47.79l4.64,-2.67l-4.64,-2.68z" />
		<path id="Path 27" class="shp4" d="M67.76,45.11v-5.36l-4.64,2.68z" />
		<path id="Path 28" class="shp0" d="M63.12,42.43l4.64,-2.67l-4.64,-2.68z" />
		<path id="Path 29" class="shp15" d="M67.76,39.76v-5.35l-4.64,2.68z" />
		<path id="Path 30" class="shp0" d="M63.12,37.08l4.64,-2.68l-4.64,-2.68zM67.76,34.4v-5.35l-4.64,2.68z" />
		<path id="Path 31" class="shp16" d="M63.12,31.72l4.64,-2.67l-4.64,-2.68z" />
		<path id="Path 32" class="shp6" d="M67.76,29.05v-5.36l-4.64,2.68z" />
		<path id="Path 33" class="shp0" d="M63.12,26.37l4.64,-2.68l-4.64,-2.68z" />
		<path id="Path 34" class="shp3" d="M67.76,23.69v-5.35l-4.64,2.68z" />
		<path id="Path 35" class="shp0" d="M63.12,21.02l4.64,-2.68l-4.64,-2.68z" />
		<path id="Path 36" class="shp6" d="M67.76,18.34v-5.36l-4.64,2.67z" />
		<path id="Path 37" class="shp17" d="M63.12,15.66l4.64,-2.67l-4.64,-2.67z" />
		<path id="Path 38" class="shp18" d="M67.76,12.99v-5.35l-4.64,2.68z" />
		<path id="Path 39" class="shp19" d="M63.12,10.31l4.64,-2.68l-4.64,-2.68z" />
		<path id="Path 40" class="shp20" d="M67.76,7.64v-5.36l-4.64,2.67z" />
		<path id="Path 41" class="shp0" d="M67.76,2.28l-4.64,-2.67v5.35zM67.76,2.28v-2.67h-4.64zM63.12,-0.4h-4.64v2.67z" />
		<path id="Path 42" class="shp21" d="M63.12,4.95v-5.35l-4.64,2.67z" />
		<path id="Path 43" class="shp22" d="M63.12,4.95l-4.64,-2.67v5.36z" />
		<path id="Path 44" class="shp19" d="M63.12,10.31v-5.36l-4.64,2.68z" />
		<path id="Path 45" class="shp17" d="M58.49,7.64v5.35l4.64,-2.67z" />
		<path id="Path 46" class="shp0" d="M63.12,15.66v-5.35l-4.64,2.67zM58.49,12.99v5.36l4.64,-2.68z" />
		<path id="Path 47" class="shp13" d="M63.12,21.02v-5.36l-4.64,2.68z" />
		<path id="Path 48" class="shp0" d="M58.49,18.34v5.35l4.64,-2.68zM63.12,26.37v-5.36l-4.64,2.68z" />
		<path id="Path 49" class="shp10" d="M58.49,23.69v5.36l4.64,-2.68z" />
		<path id="Path 50" class="shp0" d="M63.12,31.72v-5.35l-4.64,2.68z" />
		<path id="Path 51" class="shp17" d="M58.49,29.05v5.35l4.64,-2.68z" />
		<path id="Path 52" class="shp23" d="M63.12,37.08v-5.36l-4.64,2.68z" />
		<path id="Path 53" class="shp0" d="M58.49,34.4v5.35l4.64,-2.67zM63.12,42.43v-5.35l-4.64,2.68zM58.49,45.11l4.64,-2.68l-4.64,-2.68z" />
		<path id="Path 54" class="shp21" d="M63.12,47.79v-5.36l-4.64,2.68z" />
		<path id="Path 55" class="shp24" d="M58.49,50.46l4.64,-2.68l-4.64,-2.67z" />
		<path id="Path 56" class="shp0" d="M63.12,53.14v-5.35l-4.64,2.68z" />
		<path id="Path 57" class="shp25" d="M58.49,55.82l4.64,-2.68l-4.64,-2.68z" />
		<path id="Path 58" class="shp0" d="M63.12,58.49v-5.35l-4.64,2.68z" />
		<path id="Path 59" class="shp10" d="M58.49,61.17l4.64,-2.67l-4.64,-2.68z" />
		<path id="Path 60" class="shp26" d="M63.12,63.85v-5.36l-4.64,2.68z" />
		<path id="Path 61" class="shp27" d="M58.49,66.53l4.64,-2.68l-4.64,-2.68z" />
		<path id="Path 62" class="shp0" d="M58.49,66.53l4.64,2.67v-5.35zM58.49,71.88l4.64,-2.67l-4.64,-2.67zM63.12,69.2l-4.64,2.67l0.21,0.13h4.42z" />
		<path id="Path 63" class="shp28" d="M53.85,69.2v2.8h4.43l0.21,-0.12z" />
		<path id="Path 64" class="shp0" d="M53.85,69.2l4.64,2.67v-5.35z" />
		<path id="Path 65" class="shp29" d="M53.85,63.85v5.35l4.64,-2.67z" />
		<path id="Path 66" class="shp0" d="M53.85,63.85l4.64,2.68v-5.36zM53.85,58.49v5.36l4.64,-2.68z" />
		<path id="Path 67" class="shp2" d="M58.49,61.17v-5.35l-4.64,2.68z" />
		<path id="Path 68" class="shp30" d="M53.85,58.49l4.64,-2.68l-4.64,-2.68z" />
		<path id="Path 69" class="shp0" d="M58.49,55.82v-5.35l-4.64,2.68z" />
		<path id="Path 70" class="shp5" d="M53.85,53.14l4.64,-2.68l-4.64,-2.68z" />
		<path id="Path 71" class="shp27" d="M58.49,50.46v-5.35l-4.64,2.67z" />
		<path id="Path 72" class="shp0" d="M53.85,47.79l4.64,-2.67l-4.64,-2.68z" />
		<path id="Path 73" class="shp8" d="M58.49,45.11v-5.36l-4.64,2.68z" />
		<path id="Path 74" class="shp0" d="M53.85,42.43l4.64,-2.67l-4.64,-2.68z" />
		<path id="Path 75" class="shp9" d="M58.49,39.76v-5.35l-4.64,2.68z" />
		<path id="Path 76" class="shp0" d="M53.85,37.08l4.64,-2.68l-4.64,-2.68zM58.49,34.4v-5.35l-4.64,2.68z" />
		<path id="Path 77" class="shp31" d="M53.85,31.72l4.64,-2.67l-4.64,-2.68z" />
		<path id="Path 78" class="shp0" d="M58.49,29.05v-5.36l-4.64,2.68z" />
		<path id="Path 79" class="shp9" d="M53.85,26.37l4.64,-2.68l-4.64,-2.68z" />
		<path id="Path 80" class="shp0" d="M58.49,23.69v-5.35l-4.64,2.68zM53.85,21.02l4.64,-2.68l-4.64,-2.68zM58.49,18.34v-5.36l-4.64,2.67zM58.49,12.99l-4.64,-2.68v5.35zM58.49,12.99v-5.35l-4.64,2.68zM58.49,7.64l-4.64,-2.68v5.36zM58.49,7.64v-5.36l-4.64,2.67z" />
		<path id="Path 81" class="shp21" d="M58.49,2.28l-4.64,-2.67v5.35z" />
		<path id="Path 82" class="shp14" d="M58.49,2.28v-2.67h-4.64z" />
		<path id="Path 83" class="shp32" d="M53.85,-0.4h-4.64v2.67z" />
		<path id="Path 84" class="shp0" d="M53.85,4.95v-5.35l-4.64,2.67z" />
		<path id="Path 85" class="shp4" d="M53.85,4.95l-4.64,-2.67v5.36z" />
		<path id="Path 86" class="shp33" d="M53.85,10.31v-5.36l-4.64,2.68z" />
		<path id="Path 87" class="shp13" d="M53.85,10.31l-4.64,-2.68v5.35z" />
		<path id="Path 88" class="shp0" d="M53.85,15.66v-5.35l-4.64,2.67zM53.85,15.66l-4.64,-2.67v5.36zM53.85,21.02v-5.36l-4.64,2.68zM49.21,18.34v5.35l4.64,-2.68zM53.85,26.37v-5.36l-4.64,2.68zM49.21,23.69v5.36l4.64,-2.68zM53.85,31.72v-5.35l-4.64,2.68z" />
		<path id="Path 89" class="shp5" d="M49.21,29.05v5.35l4.64,-2.68z" />
		<path id="Path 90" class="shp33" d="M53.85,37.08v-5.36l-4.64,2.68z" />
		<path id="Path 91" class="shp0" d="M49.21,34.4v5.35l4.64,-2.67zM53.85,42.43v-5.35l-4.64,2.68z" />
		<path id="Path 92" class="shp34" d="M49.21,45.11l4.64,-2.68l-4.64,-2.68z" />
		<path id="Path 93" class="shp0" d="M53.85,47.79v-5.36l-4.64,2.68zM49.21,50.46l4.64,-2.68l-4.64,-2.67zM53.85,53.14v-5.35l-4.64,2.68z" />
		<path id="Path 94" class="shp35" d="M49.21,55.82l4.64,-2.68l-4.64,-2.68z" />
		<path id="Path 95" class="shp0" d="M49.21,55.82l4.64,2.68v-5.35z" />
		<path id="Path 96" class="shp30" d="M49.21,61.17l4.64,-2.67l-4.64,-2.68z" />
		<path id="Path 97" class="shp8" d="M53.85,58.49l-4.64,2.68l4.64,2.68z" />
		<path id="Path 98" class="shp9" d="M49.21,66.53l4.64,-2.68l-4.64,-2.68z" />
		<path id="Path 99" class="shp0" d="M49.21,66.53l4.64,2.67v-5.35zM49.21,71.88l4.64,-2.67l-4.64,-2.67zM53.85,69.2l-4.64,2.67l0.21,0.13h4.43zM44.58,69.2v2.8h4.43l0.21,-0.12zM44.58,69.2l4.64,2.67v-5.35z" />
		<path id="Path 100" class="shp23" d="M44.58,63.85v5.35l4.64,-2.67z" />
		<path id="Path 101" class="shp8" d="M44.58,63.85l4.64,2.68v-5.36z" />
		<path id="Path 102" class="shp6" d="M44.58,58.49v5.36l4.64,-2.68z" />
		<path id="Path 103" class="shp1" d="M44.58,58.49l4.64,2.68v-5.35z" />
		<path id="Path 104" class="shp0" d="M44.58,53.14v5.35l4.64,-2.68zM44.58,53.14l4.64,2.68v-5.35z" />
		<path id="Path 105" class="shp36" d="M44.58,47.79v5.35l4.64,-2.68z" />
		<path id="Path 106" class="shp37" d="M49.21,50.46v-5.35l-4.64,2.67z" />
		<path id="Path 107" class="shp0" d="M44.58,47.79l4.64,-2.67l-4.64,-2.68zM49.21,45.11v-5.36l-4.64,2.68zM44.58,42.43l4.64,-2.67l-4.64,-2.68zM49.21,39.76v-5.35l-4.64,2.68z" />
		<path id="Path 108" class="shp30" d="M44.58,37.08l4.64,-2.68l-4.64,-2.68z" />
		<path id="Path 109" class="shp0" d="M49.21,34.4v-5.35l-4.64,2.68zM44.58,31.72l4.64,-2.67l-4.64,-2.68z" />
		<path id="Path 110" class="shp38" d="M49.21,29.05v-5.36l-4.64,2.68z" />
		<path id="Path 111" class="shp21" d="M49.21,23.69l-4.64,-2.67v5.36z" />
		<path id="Path 112" class="shp0" d="M49.21,23.69v-5.35l-4.64,2.68zM49.21,18.34l-4.64,-2.68v5.36zM49.21,18.34v-5.36l-4.64,2.67z" />
		<path id="Path 113" class="shp39" d="M49.21,12.99l-4.64,-2.68v5.35z" />
		<path id="Path 114" class="shp0" d="M49.21,12.99v-5.35l-4.64,2.68z" />
		<path id="Path 115" class="shp40" d="M49.21,7.64l-4.64,-2.68v5.36z" />
		<path id="Path 116" class="shp39" d="M49.21,7.64v-5.36l-4.64,2.67z" />
		<path id="Path 117" class="shp0" d="M49.21,2.28l-4.64,-2.67v5.35z" />
		<path id="Path 118" class="shp41" d="M49.21,2.28v-2.67h-4.64z" />
		<path id="Path 119" class="shp42" d="M44.58,-0.4h-4.64v2.67z" />
		<path id="Path 120" class="shp0" d="M44.58,4.95v-5.35l-4.64,2.67z" />
		<path id="Path 121" class="shp43" d="M44.58,4.95l-4.64,-2.67v5.36z" />
		<path id="Path 122" class="shp4" d="M44.58,10.31v-5.36l-4.64,2.68z" />
		<path id="Path 123" class="shp0" d="M44.58,10.31l-4.64,-2.68v5.35z" />
		<path id="Path 124" class="shp13" d="M44.58,15.66v-5.35l-4.64,2.67z" />
		<path id="Path 125" class="shp4" d="M44.58,15.66l-4.64,-2.67v5.36z" />
		<path id="Path 126" class="shp27" d="M44.58,21.02v-5.36l-4.64,2.68z" />
		<path id="Path 127" class="shp34" d="M44.58,21.02l-4.64,-2.68v5.35z" />
		<path id="Path 128" class="shp11" d="M44.58,26.37v-5.36l-4.64,2.68z" />
		<path id="Path 129" class="shp44" d="M44.58,26.37l-4.64,-2.68v5.36z" />
		<path id="Path 130" class="shp0" d="M44.58,31.72v-5.35l-4.64,2.68z" />
		<path id="Path 131" class="shp11" d="M39.94,29.05v5.35l4.64,-2.68z" />
		<path id="Path 132" class="shp0" d="M44.58,37.08v-5.36l-4.64,2.68z" />
		<path id="Path 133" class="shp13" d="M39.94,34.4v5.35l4.64,-2.67z" />
		<path id="Path 134" class="shp27" d="M44.58,42.43v-5.35l-4.64,2.68z" />
		<path id="Path 135" class="shp0" d="M39.94,45.11l4.64,-2.68l-4.64,-2.68z" />
		<path id="Path 136" class="shp23" d="M39.94,45.11l4.64,2.67v-5.36z" />
		<path id="Path 137" class="shp0" d="M39.94,50.46l4.64,-2.68l-4.64,-2.67z" />
		<path id="Path 138" class="shp3" d="M44.58,47.79l-4.64,2.67l4.64,2.68z" />
		<path id="Path 139" class="shp0" d="M39.94,55.82l4.64,-2.68l-4.64,-2.68z" />
		<path id="Path 140" class="shp40" d="M39.94,55.82l4.64,2.68v-5.35z" />
		<path id="Path 141" class="shp0" d="M39.94,61.17l4.64,-2.67l-4.64,-2.68z" />
		<path id="Path 142" class="shp1" d="M44.58,58.49l-4.64,2.68l4.64,2.68z" />
		<path id="Path 143" class="shp9" d="M39.94,66.53l4.64,-2.68l-4.64,-2.68z" />
		<path id="Path 144" class="shp26" d="M39.94,66.53l4.64,2.67v-5.35z" />
		<path id="Path 145" class="shp0" d="M39.94,71.88l4.64,-2.67l-4.64,-2.67z" />
		<path id="Path 146" class="shp38" d="M44.58,69.2l-4.64,2.67l0.21,0.13h4.43z" />
		<path id="Path 147" class="shp18" d="M35.3,69.2v2.8h4.43l0.21,-0.12z" />
		<path id="Path 148" class="shp0" d="M35.3,69.2l4.64,2.67v-5.35z" />
		<path id="Path 149" class="shp38" d="M35.3,63.85v5.35l4.64,-2.67z" />
		<path id="Path 150" class="shp0" d="M35.3,63.85l4.64,2.68v-5.36z" />
		<path id="Path 151" class="shp34" d="M35.3,58.49v5.36l4.64,-2.68z" />
		<path id="Path 152" class="shp0" d="M35.3,58.49l4.64,2.68v-5.35zM35.3,53.14v5.35l4.64,-2.68z" />
		<path id="Path 153" class="shp8" d="M35.3,53.14l4.64,2.68v-5.35z" />
		<path id="Path 154" class="shp14" d="M35.3,47.79v5.35l4.64,-2.68z" />
		<path id="Path 155" class="shp45" d="M35.3,47.79l4.64,2.67v-5.35z" />
		<path id="Path 156" class="shp0" d="M35.3,42.43v5.36l4.64,-2.67z" />
		<path id="Path 157" class="shp21" d="M35.3,42.43l4.64,2.68v-5.36z" />
		<path id="Path 158" class="shp0" d="M35.3,37.08v5.35l4.64,-2.68z" />
		<path id="Path 159" class="shp40" d="M39.94,39.76v-5.35l-4.64,2.68z" />
		<path id="Path 160" class="shp28" d="M35.3,37.08l4.64,-2.68l-4.64,-2.68z" />
		<path id="Path 161" class="shp0" d="M39.94,34.4v-5.35l-4.64,2.68z" />
		<path id="Path 162" class="shp33" d="M39.94,29.05l-4.64,-2.67v5.35z" />
		<path id="Path 163" class="shp46" d="M39.94,29.05v-5.36l-4.64,2.68z" />
		<path id="Path 164" class="shp40" d="M39.94,23.69l-4.64,-2.67v5.36z" />
		<path id="Path 165" class="shp0" d="M39.94,23.69v-5.35l-4.64,2.68z" />
		<path id="Path 166" class="shp8" d="M39.94,18.34l-4.64,-2.68v5.36z" />
		<path id="Path 167" class="shp19" d="M39.94,18.34v-5.36l-4.64,2.67z" />
		<path id="Path 168" class="shp0" d="M39.94,12.99l-4.64,-2.68v5.35zM39.94,12.99v-5.35l-4.64,2.68z" />
		<path id="Path 169" class="shp2" d="M39.94,7.64l-4.64,-2.68v5.36z" />
		<path id="Path 170" class="shp24" d="M39.94,7.64v-5.36l-4.64,2.67z" />
		<path id="Path 171" class="shp47" d="M39.94,2.28l-4.64,-2.67v5.35z" />
		<path id="Path 172" class="shp0" d="M39.94,2.28v-2.67h-4.64zM35.3,-0.4h-4.64v2.67z" />
		<path id="Path 173" class="shp5" d="M35.3,4.95v-5.35l-4.64,2.67z" />
		<path id="Path 174" class="shp0" d="M35.3,4.95l-4.64,-2.67v5.36z" />
		<path id="Path 175" class="shp10" d="M35.3,10.31v-5.36l-4.64,2.68z" />
		<path id="Path 176" class="shp11" d="M35.3,10.31l-4.64,-2.68v5.35z" />
		<path id="Path 177" class="shp39" d="M35.3,15.66v-5.35l-4.64,2.67z" />
		<path id="Path 178" class="shp0" d="M35.3,15.66l-4.64,-2.67v5.36zM35.3,21.02v-5.36l-4.64,2.68z" />
		<path id="Path 179" class="shp30" d="M35.3,21.02l-4.64,-2.68v5.35z" />
		<path id="Path 180" class="shp0" d="M35.3,26.37v-5.36l-4.64,2.68z" />
		<path id="Path 181" class="shp1" d="M35.3,26.37l-4.64,-2.68v5.36z" />
		<path id="Path 182" class="shp11" d="M35.3,31.72v-5.35l-4.64,2.68z" />
		<path id="Path 183" class="shp41" d="M35.3,31.72l-4.64,-2.67v5.35z" />
		<path id="Path 184" class="shp9" d="M35.3,37.08v-5.36l-4.64,2.68z" />
		<path id="Path 185" class="shp0" d="M30.67,34.4v5.35l4.64,-2.67zM35.3,37.08l-4.64,2.67l4.64,2.68zM30.67,45.11l4.64,-2.68l-4.64,-2.68z" />
		<path id="Path 186" class="shp8" d="M30.67,45.11l4.64,2.67v-5.36z" />
		<path id="Path 187" class="shp5" d="M30.67,50.46l4.64,-2.68l-4.64,-2.67z" />
		<path id="Path 188" class="shp21" d="M35.3,47.79l-4.64,2.67l4.64,2.68z" />
		<path id="Path 189" class="shp0" d="M30.67,55.82l4.64,-2.68l-4.64,-2.68zM30.67,55.82l4.64,2.68v-5.35zM30.67,61.17l4.64,-2.67l-4.64,-2.68z" />
		<path id="Path 190" class="shp45" d="M35.3,58.49l-4.64,2.68l4.64,2.68z" />
		<path id="Path 191" class="shp0" d="M30.67,66.53l4.64,-2.68l-4.64,-2.68z" />
		<path id="Path 192" class="shp21" d="M30.67,66.53l4.64,2.67v-5.35z" />
		<path id="Path 193" class="shp5" d="M30.67,71.88l4.64,-2.67l-4.64,-2.67z" />
		<path id="Path 194" class="shp0" d="M35.3,69.2l-4.64,2.67l0.21,0.13h4.43z" />
		<path id="Path 195" class="shp33" d="M26.03,69.2v2.8h4.43l0.21,-0.12z" />
		<path id="Path 196" class="shp0" d="M26.03,69.2l4.64,2.67v-5.35z" />
		<path id="Path 197" class="shp8" d="M26.03,63.85v5.35l4.64,-2.67z" />
		<path id="Path 198" class="shp0" d="M26.03,63.85l4.64,2.68v-5.36zM26.03,58.49v5.36l4.64,-2.68zM26.03,58.49l4.64,2.68v-5.35z" />
		<path id="Path 199" class="shp26" d="M26.03,53.14v5.35l4.64,-2.68z" />
		<path id="Path 200" class="shp16" d="M26.03,53.14l4.64,2.68v-5.35z" />
		<path id="Path 201" class="shp13" d="M26.03,47.79v5.35l4.64,-2.68z" />
		<path id="Path 202" class="shp0" d="M26.03,47.79l4.64,2.67v-5.35z" />
		<path id="Path 203" class="shp42" d="M26.03,42.43v5.36l4.64,-2.67z" />
		<path id="Path 204" class="shp40" d="M26.03,42.43l4.64,2.68v-5.36z" />
		<path id="Path 205" class="shp35" d="M26.03,37.08v5.35l4.64,-2.68z" />
		<path id="Path 206" class="shp21" d="M30.67,34.4l-4.64,2.68l4.64,2.67z" />
		<path id="Path 207" class="shp0" d="M26.03,31.72v5.36l4.64,-2.68zM30.67,34.4v-5.35l-4.64,2.68z" />
		<path id="Path 208" class="shp23" d="M30.67,29.05l-4.64,-2.67v5.35z" />
		<path id="Path 209" class="shp31" d="M30.67,29.05v-5.36l-4.64,2.68z" />
		<path id="Path 210" class="shp0" d="M30.67,23.69l-4.64,-2.67v5.36z" />
		<path id="Path 211" class="shp7" d="M30.67,23.69v-5.35l-4.64,2.68z" />
		<path id="Path 212" class="shp9" d="M30.67,18.34l-4.64,-2.68v5.36z" />
		<path id="Path 213" class="shp48" d="M30.67,18.34v-5.36l-4.64,2.67z" />
		<path id="Path 214" class="shp0" d="M30.67,12.99l-4.64,-2.68v5.35z" />
		<path id="Path 215" class="shp5" d="M30.67,12.99v-5.35l-4.64,2.68z" />
		<path id="Path 216" class="shp0" d="M30.67,7.64l-4.64,-2.68v5.36z" />
		<path id="Path 217" class="shp21" d="M30.67,7.64v-5.36l-4.64,2.67z" />
		<path id="Path 218" class="shp16" d="M30.67,2.28l-4.64,-2.67v5.35z" />
		<path id="Path 219" class="shp0" d="M30.67,2.28v-2.67h-4.64z" />
		<path id="Path 220" class="shp17" d="M26.03,-0.4h-4.64v2.67z" />
		<path id="Path 221" class="shp0" d="M26.03,4.95v-5.35l-4.64,2.67z" />
		<path id="Path 222" class="shp49" d="M26.03,4.95l-4.64,-2.67v5.36z" />
		<path id="Path 223" class="shp27" d="M26.03,10.31v-5.36l-4.64,2.68z" />
		<path id="Path 224" class="shp50" d="M26.03,10.31l-4.64,-2.68v5.35z" />
		<path id="Path 225" class="shp0" d="M26.03,15.66v-5.35l-4.64,2.67zM26.03,15.66l-4.64,-2.67v5.36z" />
		<path id="Path 226" class="shp17" d="M26.03,21.02v-5.36l-4.64,2.68z" />
		<path id="Path 227" class="shp0" d="M26.03,21.02l-4.64,-2.68v5.35zM26.03,26.37v-5.36l-4.64,2.68z" />
		<path id="Path 228" class="shp44" d="M21.39,23.69v5.36l4.64,-2.68z" />
		<path id="Path 229" class="shp0" d="M26.03,26.37l-4.64,2.67l4.64,2.68zM21.39,29.05v5.35l4.64,-2.68z" />
		<path id="Path 230" class="shp8" d="M26.03,31.72l-4.64,2.68l4.64,2.68z" />
		<path id="Path 231" class="shp0" d="M21.39,34.4v5.35l4.64,-2.67z" />
		<path id="Path 232" class="shp39" d="M26.03,37.08l-4.64,2.67l4.64,2.68z" />
		<path id="Path 233" class="shp0" d="M21.39,39.76v5.36l4.64,-2.68zM21.39,45.11l4.64,2.67v-5.36zM21.39,50.46l4.64,-2.68l-4.64,-2.67z" />
		<path id="Path 234" class="shp20" d="M26.03,47.79l-4.64,2.67l4.64,2.68z" />
		<path id="Path 235" class="shp34" d="M21.39,55.82l4.64,-2.68l-4.64,-2.68z" />
		<path id="Path 236" class="shp16" d="M21.39,55.82l4.64,2.68v-5.35z" />
		<path id="Path 237" class="shp0" d="M21.39,61.17l4.64,-2.67l-4.64,-2.68z" />
		<path id="Path 238" class="shp29" d="M26.03,58.49l-4.64,2.68l4.64,2.68z" />
		<path id="Path 239" class="shp2" d="M21.39,66.53l4.64,-2.68l-4.64,-2.68z" />
		<path id="Path 240" class="shp8" d="M21.39,66.53l4.64,2.67v-5.35z" />
		<path id="Path 241" class="shp51" d="M21.39,71.88l4.64,-2.67l-4.64,-2.67z" />
		<path id="Path 242" class="shp27" d="M26.03,69.2l-4.64,2.67l0.21,0.13h4.43z" />
		<path id="Path 243" class="shp8" d="M16.76,69.2v2.8h4.43l0.21,-0.12z" />
		<path id="Path 244" class="shp0" d="M16.76,69.2l4.64,2.67v-5.35z" />
		<path id="Path 245" class="shp28" d="M16.76,63.85v5.35l4.64,-2.67z" />
		<path id="Path 246" class="shp23" d="M16.76,63.85l4.64,2.68v-5.36z" />
		<path id="Path 247" class="shp33" d="M16.76,58.49v5.36l4.64,-2.68z" />
		<path id="Path 248" class="shp48" d="M16.76,58.49l4.64,2.68v-5.35z" />
		<path id="Path 249" class="shp0" d="M16.76,53.14v5.35l4.64,-2.68z" />
		<path id="Path 250" class="shp49" d="M16.76,53.14l4.64,2.68v-5.35z" />
		<path id="Path 251" class="shp0" d="M16.76,47.79v5.35l4.64,-2.68zM21.39,45.11l-4.64,2.67l4.64,2.68zM16.76,42.43v5.36l4.64,-2.67z" />
		<path id="Path 252" class="shp42" d="M21.39,39.76l-4.64,2.67l4.64,2.68z" />
		<path id="Path 253" class="shp0" d="M16.76,37.08v5.35l4.64,-2.68z" />
		<path id="Path 254" class="shp26" d="M21.39,34.4l-4.64,2.68l4.64,2.67z" />
		<path id="Path 255" class="shp24" d="M16.76,31.72v5.36l4.64,-2.68z" />
		<path id="Path 256" class="shp27" d="M21.39,34.4v-5.35l-4.64,2.68z" />
		<path id="Path 257" class="shp0" d="M16.76,26.37v5.35l4.64,-2.68zM21.39,29.05v-5.36l-4.64,2.68zM16.76,21.02v5.36l4.64,-2.68z" />
		<path id="Path 258" class="shp21" d="M21.39,23.69v-5.35l-4.64,2.68z" />
		<path id="Path 259" class="shp0" d="M21.39,18.34l-4.64,-2.68v5.36zM21.39,18.34v-5.36l-4.64,2.67z" />
		<path id="Path 260" class="shp20" d="M21.39,12.99l-4.64,-2.68v5.35z" />
		<path id="Path 261" class="shp0" d="M21.39,12.99v-5.35l-4.64,2.68zM21.39,7.64l-4.64,-2.68v5.36zM21.39,7.64v-5.36l-4.64,2.67z" />
		<path id="Path 262" class="shp33" d="M21.39,2.28l-4.64,-2.67v5.35z" />
		<path id="Path 263" class="shp0" d="M21.39,2.28v-2.67h-4.64zM16.76,-0.4h-4.64v2.67zM16.76,4.95v-5.35l-4.64,2.67zM16.76,4.95l-4.64,-2.67v5.36z" />
		<path id="Path 264" class="shp40" d="M16.76,10.31v-5.36l-4.64,2.68z" />
		<path id="Path 265" class="shp5" d="M16.76,10.31l-4.64,-2.68v5.35zM16.76,15.66v-5.35l-4.64,2.67z" />
		<path id="Path 266" class="shp0" d="M12.12,12.99v5.36l4.64,-2.68z" />
		<path id="Path 267" class="shp42" d="M16.76,15.66l-4.64,2.68l4.64,2.68z" />
		<path id="Path 268" class="shp0" d="M12.12,18.34v5.35l4.64,-2.68z" />
		<path id="Path 269" class="shp16" d="M16.76,21.02l-4.64,2.67l4.64,2.68z" />
		<path id="Path 270" class="shp0" d="M12.12,23.69v5.36l4.64,-2.68zM16.76,26.37l-4.64,2.67l4.64,2.68z" />
		<path id="Path 271" class="shp8" d="M12.12,29.05v5.35l4.64,-2.68z" />
		<path id="Path 272" class="shp42" d="M16.76,31.72l-4.64,2.68l4.64,2.68z" />
		<path id="Path 273" class="shp33" d="M12.12,34.4v5.35l4.64,-2.67z" />
		<path id="Path 274" class="shp0" d="M16.76,37.08l-4.64,2.67l4.64,2.68z" />
		<path id="Path 275" class="shp33" d="M12.12,39.76v5.36l4.64,-2.68z" />
		<path id="Path 276" class="shp0" d="M16.76,42.43l-4.64,2.68l4.64,2.67z" />
		<path id="Path 277" class="shp30" d="M12.12,45.11v5.35l4.64,-2.68z" />
		<path id="Path 278" class="shp27" d="M16.76,47.79l-4.64,2.67l4.64,2.68z" />
		<path id="Path 279" class="shp45" d="M12.12,50.46v5.35l4.64,-2.68z" />
		<path id="Path 280" class="shp0" d="M12.12,55.82l4.64,2.68v-5.35z" />
		<path id="Path 281" class="shp34" d="M12.12,61.17l4.64,-2.67l-4.64,-2.68z" />
		<path id="Path 282" class="shp23" d="M16.76,58.49l-4.64,2.68l4.64,2.68z" />
		<path id="Path 283" class="shp0" d="M12.12,66.53l4.64,-2.68l-4.64,-2.68zM12.12,66.53l4.64,2.67v-5.35z" />
		<path id="Path 284" class="shp27" d="M12.12,71.88l4.64,-2.67l-4.64,-2.67z" />
		<path id="Path 285" class="shp0" d="M16.76,69.2l-4.64,2.67l0.21,0.13h4.43zM7.49,69.2v2.8h4.43l0.21,-0.12zM7.49,69.2l4.64,2.67v-5.35z" />
		<path id="Path 286" class="shp4" d="M7.49,63.85v5.35l4.64,-2.67z" />
		<path id="Path 287" class="shp0" d="M7.49,63.85l4.64,2.68v-5.36zM7.49,58.49v5.36l4.64,-2.68z" />
		<path id="Path 288" class="shp52" d="M12.12,55.82l-4.64,2.68l4.64,2.67z" />
		<path id="Path 289" class="shp45" d="M7.49,53.14v5.35l4.64,-2.68z" />
		<path id="Path 290" class="shp0" d="M12.12,50.46l-4.64,2.68l4.64,2.68zM7.49,47.79v5.35l4.64,-2.68z" />
		<path id="Path 291" class="shp4" d="M12.12,45.11l-4.64,2.67l4.64,2.68z" />
		<path id="Path 292" class="shp39" d="M7.49,42.43v5.36l4.64,-2.67z" />
		<path id="Path 293" class="shp52" d="M12.12,39.76l-4.64,2.67l4.64,2.68z" />
		<path id="Path 294" class="shp0" d="M7.49,37.08v5.35l4.64,-2.68zM12.12,34.4l-4.64,2.68l4.64,2.67z" />
		<path id="Path 295" class="shp45" d="M7.49,31.72v5.36l4.64,-2.68z" />
		<path id="Path 296" class="shp23" d="M12.12,34.4v-5.35l-4.64,2.68z" />
		<path id="Path 297" class="shp0" d="M7.49,26.37v5.35l4.64,-2.68zM12.12,29.05v-5.36l-4.64,2.68zM7.49,21.02v5.36l4.64,-2.68zM12.12,23.69v-5.35l-4.64,2.68zM7.49,15.66v5.36l4.64,-2.68z" />
		<path id="Path 298" class="shp53" d="M12.12,18.34v-5.36l-4.64,2.67z" />
		<path id="Path 299" class="shp13" d="M7.49,10.31v5.35l4.64,-2.67z" />
		<path id="Path 300" class="shp0" d="M12.12,12.99v-5.35l-4.64,2.68zM12.12,7.64l-4.64,-2.68v5.36zM12.12,7.64v-5.36l-4.64,2.67zM12.12,2.28l-4.64,-2.67v5.35zM12.12,2.28v-2.67h-4.64zM7.49,-0.4h-4.64v2.67z" />
		<path id="Path 301" class="shp54" d="M7.49,4.95v-5.35l-4.64,2.67z" />
		<path id="Path 302" class="shp26" d="M2.85,2.28v5.36l4.64,-2.68z" />
		<path id="Path 303" class="shp0" d="M7.49,4.95l-4.64,2.68l4.64,2.68zM2.85,7.64v5.35l4.64,-2.67zM7.49,10.31l-4.64,2.68l4.64,2.67z" />
		<path id="Path 304" class="shp40" d="M2.85,12.99v5.36l4.64,-2.68z" />
		<path id="Path 305" class="shp0" d="M7.49,15.66l-4.64,2.68l4.64,2.68z" />
		<path id="Path 306" class="shp14" d="M2.85,18.34v5.35l4.64,-2.68z" />
		<path id="Path 307" class="shp0" d="M7.49,21.02l-4.64,2.67l4.64,2.68z" />
		<path id="Path 308" class="shp42" d="M2.85,23.69v5.36l4.64,-2.68z" />
		<path id="Path 309" class="shp0" d="M7.49,26.37l-4.64,2.67l4.64,2.68z" />
		<path id="Path 310" class="shp29" d="M2.85,29.05v5.35l4.64,-2.68z" />
		<path id="Path 311" class="shp26" d="M7.49,31.72l-4.64,2.68l4.64,2.68z" />
		<path id="Path 312" class="shp9" d="M2.85,34.4v5.35l4.64,-2.67z" />
		<path id="Path 313" class="shp13" d="M7.49,37.08l-4.64,2.67l4.64,2.68z" />
		<path id="Path 314" class="shp55" d="M2.85,39.76v5.36l4.64,-2.68z" />
		<path id="Path 315" class="shp0" d="M7.49,42.43l-4.64,2.68l4.64,2.67z" />
		<path id="Path 316" class="shp27" d="M2.85,45.11v5.35l4.64,-2.68z" />
		<path id="Path 317" class="shp0" d="M7.49,47.79l-4.64,2.67l4.64,2.68zM2.85,50.46v5.35l4.64,-2.68zM7.49,53.14l-4.64,2.68l4.64,2.68zM2.85,55.82v5.35l4.64,-2.67zM7.49,58.49l-4.64,2.68l4.64,2.68zM2.85,61.17v5.36l4.64,-2.68zM2.85,66.53l4.64,2.67v-5.35zM2.85,71.88l4.64,-2.67l-4.64,-2.67z" />
		<path id="Path 318" class="shp21" d="M7.49,69.2l-4.64,2.67l0.21,0.13h4.43z" />
		<path id="Path 319" class="shp0" d="M0,70.24v1.76h2.64l0.21,-0.12zM2.85,66.53l-2.85,1.65v2.06l2.85,1.64zM0,64.88v3.29l2.85,-1.65zM2.85,61.17l-2.85,1.65v2.06l2.85,1.65z" />
		<path id="Path 320" class="shp3" d="M0,59.52v3.29l2.85,-1.65z" />
		<path id="Path 321" class="shp16" d="M2.85,55.82l-2.85,1.65v2.06l2.85,1.65z" />
		<path id="Path 322" class="shp4" d="M0,54.17v3.29l2.85,-1.65z" />
		<path id="Path 323" class="shp0" d="M2.85,50.46l-2.85,1.65v2.06l2.85,1.64zM0,48.82v3.29l2.85,-1.65z" />
		<path id="Path 324" class="shp33" d="M2.85,45.11l-2.85,1.64v2.06l2.85,1.65z" />
		<path id="Path 325" class="shp46" d="M0,43.47v3.29l2.85,-1.64z" />
		<path id="Path 326" class="shp20" d="M2.85,39.76l-2.85,1.65v2.06l2.85,1.65z" />
		<path id="Path 327" class="shp0" d="M0,38.11v3.29l2.85,-1.65z" />
		<path id="Path 328" class="shp27" d="M2.85,34.4l-2.85,1.65v2.06l2.85,1.65z" />
		<path id="Path 329" class="shp51" d="M0,32.76v3.29l2.85,-1.65z" />
		<path id="Path 330" class="shp26" d="M2.85,34.4v-5.35l-2.85,1.65v2.06z" />
		<path id="Path 331" class="shp2" d="M0,27.4v3.29l2.85,-1.65z" />
		<path id="Path 332" class="shp40" d="M2.85,29.05v-5.36l-2.85,1.65v2.06z" />
		<path id="Path 333" class="shp21" d="M0,22.05v3.29l2.85,-1.65z" />
		<path id="Path 334" class="shp0" d="M2.85,23.69v-5.35l-2.85,1.65v2.06z" />
		<path id="Path 335" class="shp23" d="M0,16.7v3.29l2.85,-1.65z" />
		<path id="Path 336" class="shp16" d="M2.85,18.34v-5.36l-2.85,1.65v2.06z" />
		<path id="Path 337" class="shp3" d="M0,11.34v3.29l2.85,-1.65z" />
		<path id="Path 338" class="shp56" d="M2.85,12.99v-5.35l-2.85,1.64v2.06z" />
		<path id="Path 339" class="shp13" d="M0,5.99v3.29l2.85,-1.64z" />
		<path id="Path 340" class="shp0" d="M2.85,7.64v-5.36l-2.85,1.65v2.06zM0,0.63v3.29l2.85,-1.65zM2.85,2.28v-2.67h-2.85v1.03z" />
	</g>
</svg>