<svg xmlns="http://www.w3.org/2000/svg" viewBox="0 0 31 31" width="31" height="31">
	<defs>
		<filter id="flt1"> <feColorMatrix in="SourceGraphic" type="matrix" values="0 0 0 0 1   0 0 0 0 1   0 0 0 0 1   0 0 0 1 0" /> </filter>
	</defs>
	<style>
		tspan { white-space:pre }
		.shp0 { filter: url(#flt1);fill: #ffffff } 
	</style>
	<path id="Телефон" class="shp0" d="M29.32 23.42L23.41 19.48C22.66 18.98 21.66 19.15 21.11 19.85L19.39 22.06C19.17 22.36 18.76 22.44 18.44 22.26L18.12 22.08C17.03 21.49 15.68 20.76 12.97 18.04C10.25 15.32 9.51 13.97 8.92 12.89L8.74 12.56C8.56 12.24 8.64 11.84 8.94 11.61L11.14 9.89C11.85 9.34 12.01 8.34 11.52 7.59L7.58 1.68C7.08 0.92 6.06 0.69 5.27 1.16L2.81 2.65C2.03 3.1 1.46 3.84 1.22 4.71C0.33 7.95 1 13.54 9.23 21.77C15.78 28.32 20.66 30.08 24.01 30.08C24.78 30.08 25.55 29.98 26.29 29.78C27.16 29.54 27.9 28.97 28.35 28.2L29.83 25.73C30.31 24.94 30.08 23.92 29.32 23.42ZM29 25.23L27.52 27.7C27.19 28.26 26.66 28.67 26.03 28.85C23.05 29.67 17.82 28.99 9.92 21.08C2.01 13.18 1.33 7.96 2.16 4.96C2.33 4.34 2.74 3.81 3.31 3.48L5.77 2C6.11 1.79 6.56 1.89 6.78 2.23L8.91 5.44L10.71 8.13C10.92 8.45 10.85 8.89 10.55 9.13L8.34 10.85C7.66 11.36 7.47 12.29 7.89 13.03L8.06 13.35C8.68 14.49 9.46 15.91 12.27 18.72C15.09 21.54 16.51 22.32 17.65 22.94L17.97 23.11C18.71 23.53 19.64 23.34 20.15 22.66L21.87 20.45C22.11 20.15 22.55 20.08 22.87 20.29L28.77 24.23C29.1 24.45 29.2 24.89 29 25.23ZM17.44 5.78C22 5.79 25.7 9.48 25.7 14.04C25.7 14.31 25.92 14.53 26.19 14.53C26.46 14.53 26.68 14.31 26.68 14.04C26.67 8.95 22.54 4.81 17.44 4.81C17.17 4.81 16.96 5.03 16.96 5.3C16.96 5.56 17.17 5.78 17.44 5.78ZM17.44 8.7C20.39 8.7 22.79 11.09 22.79 14.04C22.79 14.31 23.01 14.53 23.27 14.53C23.54 14.53 23.76 14.31 23.76 14.04C23.76 10.56 20.93 7.73 17.44 7.73C17.17 7.73 16.96 7.94 16.96 8.21C16.96 8.48 17.17 8.7 17.44 8.7ZM17.44 11.61C18.78 11.61 19.87 12.7 19.87 14.04C19.87 14.31 20.09 14.53 20.36 14.53C20.63 14.53 20.84 14.31 20.84 14.04C20.84 12.17 19.32 10.64 17.44 10.64C17.17 10.64 16.96 10.86 16.96 11.13C16.96 11.4 17.17 11.61 17.44 11.61Z" />
</svg>